<mxfile host="app.diagrams.net" modified="2020-12-17T03:35:26.339Z" agent="5.0 (Windows NT 10.0; Win64; x64) AppleWebKit/537.36 (KHTML, like Gecko) Chrome/87.0.4280.88 Safari/537.36 Edg/87.0.664.60" etag="Z8aoZhnHM2nC8HuRenpw" version="14.0.4" type="github">
  <diagram id="vo4pxGQF4mkmxWFb1wrV" name="Page-1">
    <mxGraphModel dx="1038" dy="500" grid="1" gridSize="10" guides="1" tooltips="1" connect="1" arrows="1" fold="1" page="1" pageScale="1" pageWidth="827" pageHeight="1169" math="0" shadow="0">
      <root>
        <mxCell id="0" />
        <mxCell id="1" parent="0" />
        <mxCell id="bvOYz8Wux1vd-rKvj6Pw-1" value="Provider" style="shape=umlActor;verticalLabelPosition=bottom;verticalAlign=top;html=1;" parent="1" vertex="1">
          <mxGeometry x="60" y="280" width="30" height="60" as="geometry" />
        </mxCell>
        <mxCell id="bvOYz8Wux1vd-rKvj6Pw-5" value="&lt;p style=&quot;margin: 0px ; margin-top: 4px ; text-align: center&quot;&gt;&lt;i&gt;&amp;lt;&lt;/i&gt;&amp;lt;boundary&lt;i&gt;&amp;gt;&amp;gt;&lt;/i&gt;&lt;br&gt;V_Product&lt;/p&gt;&lt;hr size=&quot;1&quot;&gt;&amp;nbsp;+ product_name&lt;br&gt;&lt;p style=&quot;margin: 0px ; margin-left: 4px&quot;&gt;+ price&lt;br&gt;&lt;/p&gt;&lt;p style=&quot;margin: 0px ; margin-left: 4px&quot;&gt;+ product_type&lt;br&gt;&lt;/p&gt;&lt;p style=&quot;margin: 0px ; margin-left: 4px&quot;&gt;+ detail_description&lt;br&gt;&lt;/p&gt;&lt;p style=&quot;margin: 0px ; margin-left: 4px&quot;&gt;+ brief_description&lt;br&gt;&lt;/p&gt;&lt;hr size=&quot;1&quot;&gt;&lt;p style=&quot;margin: 0px ; margin-left: 4px&quot;&gt;+ yeucauSuaSanPham(:Product)&lt;br&gt;&lt;/p&gt;" style="verticalAlign=top;align=left;overflow=fill;fontSize=12;fontFamily=Helvetica;html=1;" parent="1" vertex="1">
          <mxGeometry x="200" y="240" width="200" height="170" as="geometry" />
        </mxCell>
        <mxCell id="bvOYz8Wux1vd-rKvj6Pw-6" value="&lt;p style=&quot;margin: 0px ; margin-top: 4px ; text-align: center&quot;&gt;&lt;i&gt;&amp;lt;&lt;/i&gt;&amp;lt;control&lt;i&gt;&amp;gt;&amp;gt;&lt;/i&gt;&lt;br&gt;C_ChangeProduct&lt;/p&gt;&lt;hr size=&quot;1&quot;&gt;&lt;br&gt;&lt;hr size=&quot;1&quot;&gt;&lt;p style=&quot;margin: 0px ; margin-left: 4px&quot;&gt;+ kiemTraSanPham(:Product)&lt;br&gt;&lt;/p&gt;&lt;p style=&quot;margin: 0px ; margin-left: 4px&quot;&gt;+ suaThongTinSP(:Product)&lt;/p&gt;&lt;p style=&quot;margin: 0px ; margin-left: 4px&quot;&gt;+ thongBaoThanhCong()&lt;/p&gt;&lt;p style=&quot;margin: 0px ; margin-left: 4px&quot;&gt;+ thongBaoKhongHople()&lt;/p&gt;" style="verticalAlign=top;align=left;overflow=fill;fontSize=12;fontFamily=Helvetica;html=1;" parent="1" vertex="1">
          <mxGeometry x="480" y="240" width="170" height="170" as="geometry" />
        </mxCell>
        <mxCell id="bvOYz8Wux1vd-rKvj6Pw-9" value="" style="endArrow=classic;html=1;exitX=1.008;exitY=0.406;exitDx=0;exitDy=0;exitPerimeter=0;entryX=0.008;entryY=0.4;entryDx=0;entryDy=0;entryPerimeter=0;" parent="1" source="bvOYz8Wux1vd-rKvj6Pw-5" target="bvOYz8Wux1vd-rKvj6Pw-6" edge="1">
          <mxGeometry width="50" height="50" relative="1" as="geometry">
            <mxPoint x="390" y="320" as="sourcePoint" />
            <mxPoint x="440" y="270" as="targetPoint" />
          </mxGeometry>
        </mxCell>
        <mxCell id="bvOYz8Wux1vd-rKvj6Pw-10" value="" style="endArrow=classic;html=1;entryX=-0.008;entryY=0.412;entryDx=0;entryDy=0;entryPerimeter=0;" parent="1" source="bvOYz8Wux1vd-rKvj6Pw-1" target="bvOYz8Wux1vd-rKvj6Pw-5" edge="1">
          <mxGeometry width="50" height="50" relative="1" as="geometry">
            <mxPoint x="390" y="320" as="sourcePoint" />
            <mxPoint x="440" y="270" as="targetPoint" />
          </mxGeometry>
        </mxCell>
        <mxCell id="bvOYz8Wux1vd-rKvj6Pw-11" value="&lt;p style=&quot;margin: 0px ; margin-top: 4px ; text-align: center&quot;&gt;&lt;i&gt;&amp;lt;&lt;/i&gt;&amp;lt;entity&lt;i&gt;&amp;gt;&amp;gt;&lt;/i&gt;&lt;br&gt;M_Product&lt;/p&gt;&lt;hr size=&quot;1&quot;&gt;&lt;div&gt;&amp;nbsp;+ product_id: int&lt;br&gt;&lt;/div&gt;&lt;div&gt;&amp;nbsp;+ product_name: string&lt;br&gt;&lt;/div&gt;&lt;p style=&quot;margin: 0px ; margin-left: 4px&quot;&gt;+ price: int&lt;br&gt;&lt;/p&gt;&lt;p style=&quot;margin: 0px ; margin-left: 4px&quot;&gt;+ product_type: string&lt;br&gt;&lt;/p&gt;&lt;p style=&quot;margin: 0px ; margin-left: 4px&quot;&gt;+ brief_description: string&lt;br&gt;&lt;/p&gt;&lt;p style=&quot;margin: 0px ; margin-left: 4px&quot;&gt;+ detail_description: string&lt;br&gt;&lt;/p&gt;&amp;nbsp;&lt;br&gt;&lt;hr size=&quot;1&quot;&gt;&lt;p style=&quot;margin: 0px ; margin-left: 4px&quot;&gt;&lt;br&gt;&lt;br&gt;&lt;/p&gt;" style="verticalAlign=top;align=left;overflow=fill;fontSize=12;fontFamily=Helvetica;html=1;" parent="1" vertex="1">
          <mxGeometry x="770" y="240" width="150" height="170" as="geometry" />
        </mxCell>
        <mxCell id="bvOYz8Wux1vd-rKvj6Pw-16" value="" style="endArrow=classic;html=1;exitX=1.023;exitY=0.388;exitDx=0;exitDy=0;exitPerimeter=0;entryX=0.007;entryY=0.388;entryDx=0;entryDy=0;entryPerimeter=0;" parent="1" source="bvOYz8Wux1vd-rKvj6Pw-6" target="bvOYz8Wux1vd-rKvj6Pw-11" edge="1">
          <mxGeometry width="50" height="50" relative="1" as="geometry">
            <mxPoint x="590" y="320" as="sourcePoint" />
            <mxPoint x="640" y="270" as="targetPoint" />
          </mxGeometry>
        </mxCell>
      </root>
    </mxGraphModel>
  </diagram>
</mxfile>
